<svg xmlns="http://www.w3.org/2000/svg" viewBox="33.8 33.8 1166.2 1166.2">
  <g fill="#fff" stroke="none">
    <path d="M885,683c-90.6,0-183.1-45.3-252.9-115.1S517,405.6,517,315v-45.3h-69.8V315c0,90.6-45.3,183.1-115.1,252.9S169.7,683,79.1,683H33.8v71.7h43.4c90.6,0,183.1,45.3,252.9,115.1s115.1,162.3,115.1,252.9v43.4H517v-43.4c0-90.6,45.3-183.1,115.1-252.9S794.4,754.8,885,754.8h45.3V683L885,683z M583,818.9c-41.5,41.5-75.5,90.6-100,143.4c-24.5-54.7-58.5-103.8-101.9-143.4c-41.5-41.5-90.6-75.5-143.4-100c52.8-24.5,101.9-58.5,143.4-100s75.5-90.6,100-143.4c24.5,52.8,58.5,101.9,100,143.4c41.5,41.5,90.6,75.5,145.3,100C673.6,743.4,624.5,777.4,583,818.9z"/>
    <path d="M1122.8,281.1c-49.1,0-100-24.5-139.7-64.2s-64.2-90.6-64.2-139.7V33.8h-71.7v43.4c0,49.1-24.5,100-64.2,139.7s-90.6,64.2-139.7,64.2H600v71.7h43.4c49.1,0,101.9,24.5,139.7,64.2c39.6,39.6,64.2,90.6,64.2,139.7V600h71.7v-43.4c0-49.1,24.5-100,64.2-139.7s90.6-64.2,139.7-64.2h43.4v-71.7L1122.8,281.1z M932.2,366c-18.9,18.9-35.9,41.5-49.1,64.2c-13.2-22.6-30.2-45.3-49.1-64.2c-18.9-18.9-41.5-35.9-64.2-49.1c24.5-13.2,45.3-30.2,64.2-49.1s35.9-41.5,49.1-64.2c13.2,24.5,30.2,45.3,49.1,64.2s41.5,35.9,64.2,49.1C971.8,330.1,951,347.1,932.2,366z"/>
  </g>
</svg>